<svg id="Layer_3" data-name="Layer 3" xmlns="http://www.w3.org/2000/svg" viewBox="0 0 1000 200"><defs><style>.cls-1{fill:#ffc;}.cls-1,.cls-2{opacity:0.75;}.cls-2{fill:#fff;}</style></defs><title>donburi vector logo</title><path class="cls-1" d="M121.77,167.86h0Z"/><path class="cls-1" d="M121.83,167.86h0Z"/><path class="cls-2" d="M156.75,31.86V82.48l-.17-.1a62.12,62.12,0,0,0-30.37-8.26h-1.42A62.57,62.57,0,1,0,188,136.62V.62A31.39,31.39,0,0,0,156.75,31.86Zm0,105.62c0,.12,0,.23,0,.34s0,.29,0,.44,0,.19,0,.29h0l0,.3a.22.22,0,0,1,0,.08c0,.1,0,.2,0,.3l-.06.68,0,.24s0,0,0,0a1.09,1.09,0,0,1,0,.26v0c0,.11,0,.22,0,.33l-.06.44a2.17,2.17,0,0,0,0,.25s0,.07,0,.11,0,.17,0,.26-.06.36-.1.54,0,.16,0,.24,0,.24-.08.36-.05.24-.07.36,0,.13-.05.2,0,.11,0,.17-.07.3-.11.45a2,2,0,0,1-.07.26.07.07,0,0,1,0,0l-.06.24a.64.64,0,0,1,0,.07c-.09.33-.18.66-.28,1l-.14.42c-.07.23-.15.46-.23.69l-.12.35c0,.09-.07.19-.11.28s-.11.3-.17.45-.07.19-.11.29l-.13.31h0l0,0h0l-.09.22a.91.91,0,0,1-.07.14,1.89,1.89,0,0,1-.11.25l0,.05c0,.1-.09.21-.14.31l-.15.34-.13.27-.07.13c0,.1-.09.2-.15.3a2.53,2.53,0,0,1-.12.23v0l-.11.21-.06.11-.17.31-.21.38c-.05.09-.1.19-.16.28s-.24.42-.37.63l-.17.27-.18.3c-.07.1-.13.2-.2.29l-.2.31-.1.14-.1.15-.2.3-.21.29-.09.12c-.19.26-.39.53-.6.79l-.09.11L150,156c-.07.09-.15.18-.22.28l-.22.26v0l-.23.27-.12.13-.12.14q-.44.51-.9,1l-.18.19-.38.39-.19.19-.15.15-.07.06-.36.34c-.17.17-.35.33-.53.49l-.11.09-.18.16-.25.22-.13.11-.14.12-.26.21,0,0-.27.22-.23.18h0l-.09.07-.22.17h0l-.05.05-.18.13-.48.35-.15.1-.15.11-.14.1-.28.19-.26.17-.14.09-.22.14c-.3.2-.61.38-.92.57l-.31.18-.31.18-.32.17-.29.16,0,0-.2.1-.15.08-.24.12-.39.19-.13.07-.24.11-.22.11-.07,0-.27.13-.06,0-.3.13-.34.14-.32.13,0,0-.3.12-.43.16-.6.22-.35.12-.69.22-.53.16-.26.08-.27.07-.16,0L133,167l-.16,0-.2,0-.29.07-.09,0-.35.07-.29.06-.1,0-.3.06-.11,0-.18,0-.18,0-.24,0-.1,0-.3.05h-.07l-.3,0-.24,0-.17,0-.56.06h-.08l-.25,0-.23,0H128l-.19,0-.38,0-.2,0h-.56l-.74,0h-1.27a31.25,31.25,0,0,1,.81-62.48h1.71c.48,0,1,.06,1.42.11h.13l.33,0c.78.09,1.56.21,2.33.35l.38.08.25,0h0l.22,0,.49.11.22.06.37.09.25.06.33.1.24.06c.66.19,1.31.41,1.95.64l.19.07.21.08c.59.22,1.18.47,1.76.73l.2.09.87.41.26.13.41.22.28.15c.25.13.51.27.76.42l.28.17h0l.32.19.32.2.24.14.19.13.24.15.23.16.18.12.45.31.11.08.91.67.35.28.35.29.35.28.33.28,0,0c.35.3.69.62,1,.94l.25.24.21.21.06.06.23.23.24.25.25.26.23.25.24.26.12.13.11.13.23.27c.22.25.44.51.65.77l.17.22c.27.34.54.69.79,1l.13.17v0a1.13,1.13,0,0,0,.1.13l.09.14c0,.07.1.14.14.21l.12.16.12.18.21.33c.07.1.13.2.19.3l.15.23.13.2.15.25c0,.08.09.15.13.22l.17.3c.13.23.26.45.38.68.05.08.09.17.14.26l.12.24a1.14,1.14,0,0,1,.1.19l.15.29.15.31c.1.2.19.4.28.61a2.56,2.56,0,0,1,.11.24l0,.06.12.27a1,1,0,0,1,0,.1l.09.21,0,.07.12.31a3.05,3.05,0,0,1,.13.32c0,.11.09.23.13.34s.17.45.25.67.08.23.11.34c.12.34.23.69.33,1s.14.46.2.69c0,.06,0,.12.05.17s0,.12,0,.18l.08.29s0,.07,0,.11a1.55,1.55,0,0,1,.06.23l0,.11c0,.1.05.2.07.3v0a3.38,3.38,0,0,1,.08.34c0,.11.05.23.07.35l.06.32v0s0,.08,0,.12a.2.2,0,0,1,0,.07,1.29,1.29,0,0,1,0,.19l.06.36c0,.12,0,.24,0,.36s.07.47.1.71c0,.08,0,.17,0,.26s0,.13,0,.2l0,.3h0c0,.11,0,.22,0,.34v.19l0,.27c0,.09,0,.17,0,.25v.29a2,2,0,0,1,0,.25.28.28,0,0,1,0,.09c0,.13,0,.25,0,.37a2.26,2.26,0,0,0,0,.26v.45h0a.66.66,0,0,1,0,.14v.35C156.75,136.9,156.74,137.19,156.74,137.48Z"/><path class="cls-2" d="M543.4,167.25h0Z"/><path class="cls-2" d="M543.46,167.25h0Z"/><path class="cls-2" d="M544.43,74.5H543a62.19,62.19,0,0,0-30.38,8.27l-.17.09V32.25A31.39,31.39,0,0,0,481.22,1V137a62.5,62.5,0,1,0,63.21-62.5Zm-1,93.75h-.14l-.74,0h-.77l-.38,0h-.19l-.18,0-.23,0-.25,0h-.09l-.56-.06-.17,0-.24,0-.29,0h-.07l-.3,0h-.11l-.23,0-.18,0-.19,0H538l-.3-.06-.1,0-.29-.06-.35-.08-.09,0-.28-.06-.21-.05-.15,0-.56-.14-.16,0-.26-.08L535,167l-.52-.16-.7-.23-.35-.12c-.2-.06-.39-.14-.59-.21l-.43-.16-.31-.12-.05,0-.32-.12-.33-.15-.3-.13-.06,0-.28-.12-.06,0-.22-.1-.25-.12-.13-.06-.39-.2-.24-.12-.15-.08-.19-.1h0l-.29-.16-.32-.18-.32-.17-.31-.19-.92-.56-.22-.15-.13-.08-.27-.18-.27-.19-.15-.1-.15-.1-.14-.11-.48-.34-.18-.14-.06,0h0l-.22-.17-.09-.07,0,0-.23-.18-.27-.21,0,0a2.75,2.75,0,0,1-.26-.22l-.14-.12-.14-.11-.25-.21-.18-.16-.11-.1-.53-.48c-.12-.11-.24-.22-.35-.34l-.07-.07-.16-.15c-.06-.06-.12-.13-.19-.19l-.37-.38c-.07-.06-.13-.13-.19-.19-.31-.33-.61-.66-.9-1l-.12-.13a1.34,1.34,0,0,1-.11-.14l-.23-.27h0l-.21-.27-.23-.28-.09-.11-.09-.12-.6-.79-.08-.12-.21-.29-.21-.29-.1-.15-.1-.15c-.06-.1-.13-.2-.2-.3l-.19-.3c-.07-.1-.13-.2-.19-.3l-.16-.27c-.13-.21-.26-.41-.38-.63l-.16-.28-.21-.38-.16-.3-.06-.12a2.12,2.12,0,0,1-.11-.21l0,0-.12-.24-.15-.29-.06-.14c-.05-.09-.09-.18-.13-.27a3.54,3.54,0,0,1-.16-.34c0-.1-.09-.2-.14-.31l0,0a2.72,2.72,0,0,1-.11-.25l-.06-.15-.1-.22h0a0,0,0,0,1,0,0h0c-.05-.11-.09-.21-.13-.32l-.12-.29-.17-.44c0-.1-.07-.19-.1-.29s-.09-.23-.12-.34-.16-.46-.24-.7-.09-.27-.13-.41c-.1-.33-.2-.66-.29-1a.14.14,0,0,0,0-.07l-.06-.24a.43.43,0,0,0,0-.05c0-.09-.05-.18-.07-.27s-.07-.3-.11-.45,0-.11,0-.17,0-.13,0-.2-.05-.23-.08-.35,0-.24-.07-.36,0-.17,0-.25-.07-.36-.09-.54,0-.17,0-.26v-.1a2,2,0,0,1,0-.26c0-.14,0-.29-.07-.44s0-.22,0-.33v0l0-.26a.43.43,0,0,1,0-.05c0-.08,0-.15,0-.23,0-.23,0-.46-.07-.69s0-.19,0-.29,0-.06,0-.09v-.3h0c0-.1,0-.19,0-.29s0-.29,0-.43,0-.23,0-.35c0-.28,0-.57,0-.86,0-.12,0-.23,0-.34v-.15h0v-.24a.19.19,0,0,1,0-.08v-.12a2.44,2.44,0,0,1,0-.27c0-.12,0-.24,0-.36s0-.06,0-.1,0-.16,0-.25v-.29c0-.08,0-.16,0-.24s0-.18,0-.28l0-.19,0-.34h0l0-.3,0-.19,0-.27c0-.24.06-.47.1-.71s0-.24.06-.35,0-.25.06-.37l0-.18s0-.05,0-.07l0-.12v0l.06-.32c0-.12,0-.24.08-.36s0-.23.07-.34a0,0,0,0,1,0,0c0-.1,0-.2.07-.3a.43.43,0,0,1,0-.11l.06-.24,0-.1a2.46,2.46,0,0,1,.07-.29,1.21,1.21,0,0,1,0-.18c0-.06,0-.11,0-.17.07-.23.13-.46.2-.7s.21-.68.33-1l.12-.34c.07-.23.16-.45.24-.68s.09-.22.13-.34.09-.21.13-.32.08-.2.13-.3a.13.13,0,0,1,0-.08,1,1,0,0,1,.09-.21.69.69,0,0,1,0-.1l.12-.26a.11.11,0,0,1,0-.06,2.72,2.72,0,0,1,.11-.25c.09-.2.19-.4.29-.61s.1-.2.14-.3l.15-.3a1.14,1.14,0,0,0,.1-.19l.12-.23.15-.27c.12-.22.24-.45.37-.67l.18-.31a2.39,2.39,0,0,1,.13-.21,2.07,2.07,0,0,1,.15-.25l.12-.21.15-.23c.06-.1.12-.2.19-.3l.22-.33.12-.18.11-.16.14-.2.1-.14.1-.14h0l.12-.17c.26-.36.52-.71.79-1.05l.17-.21.65-.78c.08-.09.15-.18.23-.26l.12-.13a.69.69,0,0,1,.11-.13l.24-.27.24-.24.24-.27c.08-.08.16-.17.25-.25l.23-.23,0,0,.22-.21.25-.24c.34-.33.68-.64,1-1h0l.33-.28.35-.29.35-.28.36-.28c.3-.23.6-.46.91-.68l.1-.07.46-.32.17-.12.24-.15.24-.16.19-.12.23-.15.32-.2.32-.19h0l.28-.17.75-.42.28-.15.42-.21a2.1,2.1,0,0,1,.26-.13l.86-.42.21-.09c.57-.26,1.16-.5,1.75-.73l.22-.08.18-.06c.64-.24,1.3-.45,2-.64l.23-.07.34-.09.24-.06.37-.1.22,0,.49-.11.23,0h0l.24-.06.39-.07c.77-.15,1.54-.27,2.33-.36l.33,0,.12,0c.47,0,.95-.08,1.43-.1h.18l.32,0h1.2a31.25,31.25,0,0,1,.81,62.49h-1.12Z"/><path class="cls-2" d="M263.28,74.5h-1.41a62.5,62.5,0,0,0,0,125h1.41a62.5,62.5,0,0,0,0-125Zm-.3,93.75h-.81a31.25,31.25,0,0,1,0-62.5H263a31.25,31.25,0,0,1,0,62.5Z"/><path class="cls-2" d="M465.86,143.77a32.11,32.11,0,0,1,.26,4.07v21.42a31.24,31.24,0,0,1-31.25,31.25V138A31.26,31.26,0,0,0,404,106.75h-.8A31.26,31.26,0,0,0,372.37,138v31.26a31.19,31.19,0,0,1-4,15.28,31.12,31.12,0,0,1-5.17,6.82,31.19,31.19,0,0,1-22.1,9.15V75.5a31.2,31.2,0,0,1,25,12.5,62.25,62.25,0,0,1,36.8-12.5h1.41A62.5,62.5,0,0,1,466.12,138C466.12,139.94,466,141.87,465.86,143.77Z"/><path class="cls-2" d="M873.9,121.38c0,.66,0,1.32,0,2V137h-3.48a27.77,27.77,0,0,1-27.77-27.78v.69a31.13,31.13,0,0,0-15.18-4.16h-.81A31.25,31.25,0,0,0,795.78,137v31.26a31.09,31.09,0,0,1-4,15.28,31.12,31.12,0,0,1-5.17,6.82,31.14,31.14,0,0,1-22.09,9.15V74.5a31.18,31.18,0,0,1,25,12.5,62.25,62.25,0,0,1,36.8-12.5h1.41a46.88,46.88,0,0,1,46.14,45.25C873.89,120.29,873.9,120.83,873.9,121.38Z"/><path class="cls-2" d="M924.33,74h.39a0,0,0,0,1,0,0v94.14A30.86,30.86,0,0,1,893.85,199h-.39a0,0,0,0,1,0,0V104.86A30.86,30.86,0,0,1,924.33,74Z"/><path class="cls-2" d="M924.33,28.75h.39a0,0,0,0,1,0,0V42.3a30.86,30.86,0,0,1-30.86,30.86h-.39a0,0,0,0,1,0,0V59.61A30.86,30.86,0,0,1,924.33,28.75Z"/><path class="cls-2" d="M744.91,73.65v66.19a63.12,63.12,0,0,1-30,50.77l-.74.44-.13.07-.31.17a62.3,62.3,0,0,1-30.18,8.16h-1.41a62.47,62.47,0,0,1-54.79-33.73l-.37-.71a61.52,61.52,0,0,1-6.66-24.94V74.53a31.83,31.83,0,0,1,25.11,12.36l.1.12a30.83,30.83,0,0,1,6.35,18.77v26.91a31.25,31.25,0,0,0,30.56,35.51h.81a31.26,31.26,0,0,0,30.48-26.46V105.21a31.56,31.56,0,0,1,6.11-18.72l.18-.24A31.23,31.23,0,0,1,744.91,73.65Z"/></svg>